# xmcd
#
# Track frame offsets:
#	150
#	23762
#	41100
#	61550
#	76412
#	104162
#	120412
#	156450
#	174800
#	206912
#	228012
#	249387
#	269387
#	298712
#
# Disc length: 4266
#
# Revision: 1
# Processed by: cddbd v1.5.1PL0 Copyright (c) Steve Scherf et al.
# Submitted via: CDex 1.51
# Normalized: r0:TDELIM( - )
#
DISCID=bb10a80e
DTITLE=Miles Davis and others - Dream - Jazz Moods
DYEAR=1900
DGENRE=Jazz
TTITLE0=Buddy Collette - Over the rainbow
TTITLE1=Barbara Lea - Will I find my love today
TTITLE2=Thelonious Monk - Smoke gets in your eyes
TTITLE3=Abbey Lincoln - Music, Maestro, please
TTITLE4=Milt Jackson - Feelings
TTITLE5=Sarah Vaughn - Capacabana
TTITLE6=Cet Baker - Polka dots and moonbeams
TTITLE7=Ella Fitzgerald - Dreaming dancing
TTITLE8=Art Farmer - Blame it on my youth
TTITLE9=Etta Jones - All the way
TTITLE10=Phil Woods Qt - Falling in love again
TTITLE11=Ruth Brown - A world I never made
TTITLE12=Sonny Rollins - You don't know what love is
TTITLE13=Miles Davis - I see your face before me
EXTD=
EXTT0=
EXTT1=
EXTT2=
EXTT3=
EXTT4=
EXTT5=
EXTT6=
EXTT7=
EXTT8=
EXTT9=
EXTT10=
EXTT11=
EXTT12=
EXTT13=
PLAYORDER=
